<mxfile host="app.diagrams.net" agent="Mozilla/5.0 (Windows NT 10.0; Win64; x64) AppleWebKit/537.36 (KHTML, like Gecko) Chrome/141.0.0.0 Safari/537.36" version="28.2.5">
  <diagram name="หน้า-1" id="HQ9NVgsOX_6Um-SGwR-2">
    <mxGraphModel grid="1" page="1" gridSize="10" guides="1" tooltips="1" connect="1" arrows="1" fold="1" pageScale="1" pageWidth="827" pageHeight="1169" math="0" shadow="0">
      <root>
        <mxCell id="0" />
        <mxCell id="1" parent="0" />
        <mxCell id="PAVQ1afMyBgtSDZh_0J4-1" value="เริ่ม (Start)" style="ellipse;whiteSpace=wrap;html=1;" vertex="1" parent="1">
          <mxGeometry x="340" y="20" width="100" height="40" as="geometry" />
        </mxCell>
        <mxCell id="PAVQ1afMyBgtSDZh_0J4-2" value="" style="endArrow=classic;html=1;exitX=0.5;exitY=1;entryX=0.5;entryY=0;" edge="1" parent="1" source="PAVQ1afMyBgtSDZh_0J4-1" target="PAVQ1afMyBgtSDZh_0J4-3">
          <mxGeometry width="50" height="50" relative="1" as="geometry">
            <mxPoint x="390" y="60" as="sourcePoint" />
            <mxPoint x="390" y="100" as="targetPoint" />
          </mxGeometry>
        </mxCell>
        <mxCell id="PAVQ1afMyBgtSDZh_0J4-3" value="กำหนดตัวแปร H, W, Area เป็นตัวเลขทศนิยม" style="shape=process;whiteSpace=wrap;html=1;" vertex="1" parent="1">
          <mxGeometry x="310" y="100" width="160" height="60" as="geometry" />
        </mxCell>
        <mxCell id="PAVQ1afMyBgtSDZh_0J4-4" value="" style="endArrow=classic;html=1;exitX=0.5;exitY=1;entryX=0.5;entryY=0;" edge="1" parent="1" source="PAVQ1afMyBgtSDZh_0J4-3" target="PAVQ1afMyBgtSDZh_0J4-5">
          <mxGeometry width="50" height="50" relative="1" as="geometry">
            <mxPoint x="390" y="160" as="sourcePoint" />
            <mxPoint x="390" y="200" as="targetPoint" />
          </mxGeometry>
        </mxCell>
        <mxCell id="PAVQ1afMyBgtSDZh_0J4-5" value="แสดงผล: &quot;H: &quot;" style="shape=parallelogram;perimeter=parallelogramPerimeter;whiteSpace=wrap;html=1;" vertex="1" parent="1">
          <mxGeometry x="320" y="200" width="140" height="60" as="geometry" />
        </mxCell>
        <mxCell id="PAVQ1afMyBgtSDZh_0J4-6" value="" style="endArrow=classic;html=1;exitX=0.5;exitY=1;entryX=0.5;entryY=0;" edge="1" parent="1" source="PAVQ1afMyBgtSDZh_0J4-5" target="PAVQ1afMyBgtSDZh_0J4-7">
          <mxGeometry width="50" height="50" relative="1" as="geometry">
            <mxPoint x="390" y="260" as="sourcePoint" />
            <mxPoint x="390" y="300" as="targetPoint" />
          </mxGeometry>
        </mxCell>
        <mxCell id="PAVQ1afMyBgtSDZh_0J4-7" value="รับค่า H" style="shape=parallelogram;perimeter=parallelogramPerimeter;whiteSpace=wrap;html=1;" vertex="1" parent="1">
          <mxGeometry x="320" y="300" width="140" height="60" as="geometry" />
        </mxCell>
        <mxCell id="PAVQ1afMyBgtSDZh_0J4-8" value="" style="endArrow=classic;html=1;exitX=0.5;exitY=1;entryX=0.5;entryY=0;" edge="1" parent="1" source="PAVQ1afMyBgtSDZh_0J4-7" target="PAVQ1afMyBgtSDZh_0J4-9">
          <mxGeometry width="50" height="50" relative="1" as="geometry">
            <mxPoint x="390" y="360" as="sourcePoint" />
            <mxPoint x="390" y="400" as="targetPoint" />
          </mxGeometry>
        </mxCell>
        <mxCell id="PAVQ1afMyBgtSDZh_0J4-9" value="แสดงผล: &quot;W: &quot;" style="shape=parallelogram;perimeter=parallelogramPerimeter;whiteSpace=wrap;html=1;" vertex="1" parent="1">
          <mxGeometry x="320" y="400" width="140" height="60" as="geometry" />
        </mxCell>
        <mxCell id="PAVQ1afMyBgtSDZh_0J4-10" value="" style="endArrow=classic;html=1;exitX=0.5;exitY=1;entryX=0.5;entryY=0;" edge="1" parent="1" source="PAVQ1afMyBgtSDZh_0J4-9" target="PAVQ1afMyBgtSDZh_0J4-11">
          <mxGeometry width="50" height="50" relative="1" as="geometry">
            <mxPoint x="390" y="460" as="sourcePoint" />
            <mxPoint x="390" y="500" as="targetPoint" />
          </mxGeometry>
        </mxCell>
        <mxCell id="PAVQ1afMyBgtSDZh_0J4-11" value="รับค่า W" style="shape=parallelogram;perimeter=parallelogramPerimeter;whiteSpace=wrap;html=1;" vertex="1" parent="1">
          <mxGeometry x="320" y="500" width="140" height="60" as="geometry" />
        </mxCell>
        <mxCell id="PAVQ1afMyBgtSDZh_0J4-12" value="" style="endArrow=classic;html=1;exitX=0.5;exitY=1;entryX=0.5;entryY=0;" edge="1" parent="1" source="PAVQ1afMyBgtSDZh_0J4-11" target="PAVQ1afMyBgtSDZh_0J4-13">
          <mxGeometry width="50" height="50" relative="1" as="geometry">
            <mxPoint x="390" y="560" as="sourcePoint" />
            <mxPoint x="390" y="600" as="targetPoint" />
          </mxGeometry>
        </mxCell>
        <mxCell id="PAVQ1afMyBgtSDZh_0J4-13" value="คำนวณ:&#xa;Area = (H * W) / 2" style="shape=process;whiteSpace=wrap;html=1;" vertex="1" parent="1">
          <mxGeometry x="310" y="600" width="160" height="60" as="geometry" />
        </mxCell>
        <mxCell id="PAVQ1afMyBgtSDZh_0J4-14" value="" style="endArrow=classic;html=1;exitX=0.5;exitY=1;entryX=0.5;entryY=0;" edge="1" parent="1" source="PAVQ1afMyBgtSDZh_0J4-13" target="PAVQ1afMyBgtSDZh_0J4-15">
          <mxGeometry width="50" height="50" relative="1" as="geometry">
            <mxPoint x="390" y="660" as="sourcePoint" />
            <mxPoint x="390" y="700" as="targetPoint" />
          </mxGeometry>
        </mxCell>
        <mxCell id="PAVQ1afMyBgtSDZh_0J4-15" value="แสดงผล: &quot;Area = [Area]&quot;" style="shape=parallelogram;perimeter=parallelogramPerimeter;whiteSpace=wrap;html=1;" vertex="1" parent="1">
          <mxGeometry x="300" y="700" width="180" height="60" as="geometry" />
        </mxCell>
        <mxCell id="PAVQ1afMyBgtSDZh_0J4-16" value="" style="endArrow=classic;html=1;exitX=0.5;exitY=1;entryX=0.5;entryY=0;" edge="1" parent="1" source="PAVQ1afMyBgtSDZh_0J4-15" target="PAVQ1afMyBgtSDZh_0J4-17">
          <mxGeometry width="50" height="50" relative="1" as="geometry">
            <mxPoint x="390" y="760" as="sourcePoint" />
            <mxPoint x="390" y="800" as="targetPoint" />
          </mxGeometry>
        </mxCell>
        <mxCell id="PAVQ1afMyBgtSDZh_0J4-17" value="จบ (Stop)" style="ellipse;whiteSpace=wrap;html=1;" vertex="1" parent="1">
          <mxGeometry x="340" y="800" width="100" height="40" as="geometry" />
        </mxCell>
      </root>
    </mxGraphModel>
  </diagram>
</mxfile>
